<?xml version="1.0" encoding="UTF-8" standalone="no"?>
<!-- Generator: Adobe Illustrator 18.1.1, SVG Export Plug-In . SVG Version: 6.00 Build 0)  -->

<svg
   xmlns:dc="http://purl.org/dc/elements/1.1/"
   xmlns:cc="http://creativecommons.org/ns#"
   xmlns:rdf="http://www.w3.org/1999/02/22-rdf-syntax-ns#"
   xmlns:svg="http://www.w3.org/2000/svg"
   xmlns="http://www.w3.org/2000/svg"
   xmlns:sodipodi="http://sodipodi.sourceforge.net/DTD/sodipodi-0.dtd"
   xmlns:inkscape="http://www.inkscape.org/namespaces/inkscape"
   version="1.1"
   id="Capa_1"
   x="0px"
   y="0px"
   viewBox="0 0 29.978 29.978"
   style="enable-background:new 0 0 29.978 29.978;"
   xml:space="preserve"
   sodipodi:docname="upload.svg"
   inkscape:version="0.92.4 (5da689c313, 2019-01-14)"><metadata
   id="metadata73"><rdf:RDF><cc:Work
       rdf:about=""><dc:format>image/svg+xml</dc:format><dc:type
         rdf:resource="http://purl.org/dc/dcmitype/StillImage" /><dc:title></dc:title></cc:Work></rdf:RDF></metadata><defs
   id="defs71">
	
	
	
	
	
	
	
	
	
	
	
	
	
	
	
	
	
</defs><sodipodi:namedview
   pagecolor="#ffffff"
   bordercolor="#666666"
   borderopacity="1"
   objecttolerance="10"
   gridtolerance="10"
   guidetolerance="10"
   inkscape:pageopacity="0"
   inkscape:pageshadow="2"
   inkscape:window-width="640"
   inkscape:window-height="480"
   id="namedview69"
   showgrid="false"
   inkscape:zoom="7.8724396"
   inkscape:cx="14.989"
   inkscape:cy="14.989"
   inkscape:window-x="0"
   inkscape:window-y="27"
   inkscape:window-maximized="0"
   inkscape:current-layer="Capa_1" />
<path
   inkscape:connector-curvature="0"
   id="path2"
   d="m 25.462,19.105 v 6.848 H 4.515 V 19.105 H 0.489 v 8.861 c 0,1.111 0.9,2.012 2.016,2.012 h 24.967 c 1.115,0 2.016,-0.9 2.016,-2.012 v -8.861 z" /><path
   inkscape:connector-curvature="0"
   id="path4"
   d="m 15.353108,0.26390813 5.764,6.96500037 c 0,0 0.877,0.828 -0.074,0.828 -0.951,0 -3.248,0 -3.248,0 0,0 0,0.557 0,1.416 0,2.4490005 0,6.9060005 0,8.7230005 0,0 0.129,0.494 -0.615,0.494 -0.75,0 -4.035001,0 -4.572001,0 -0.536,0 -0.524,-0.416 -0.524,-0.416 0,-1.762 0,-6.373 0,-8.7420005 0,-0.768 0,-1.266 0,-1.266 0,0 -1.842,0 -2.998,0 -1.154,0 -0.285,-0.867 -0.285,-0.867 0,0 4.904,-6.51000037 5.588001,-7.19300037 0.492,-0.495 0.964,0.058 0.964,0.058 z" /><g
   id="g6">
	</g><g
   id="g8">
	</g><g
   id="g10">
	</g><g
   id="g12">
	</g><g
   id="g14">
	</g><g
   id="g16">
	</g><g
   id="g18">
	</g><g
   id="g20">
	</g><g
   id="g22">
	</g><g
   id="g24">
	</g><g
   id="g26">
	</g><g
   id="g28">
	</g><g
   id="g30">
	</g><g
   id="g32">
	</g><g
   id="g34">
	</g>
<g
   id="g38">
</g>
<g
   id="g40">
</g>
<g
   id="g42">
</g>
<g
   id="g44">
</g>
<g
   id="g46">
</g>
<g
   id="g48">
</g>
<g
   id="g50">
</g>
<g
   id="g52">
</g>
<g
   id="g54">
</g>
<g
   id="g56">
</g>
<g
   id="g58">
</g>
<g
   id="g60">
</g>
<g
   id="g62">
</g>
<g
   id="g64">
</g>
<g
   id="g66">
</g>
</svg>